<?xml version="1.0" encoding="utf-8"?>
<!-- Generator: Adobe Illustrator 18.1.1, SVG Export Plug-In . SVG Version: 6.00 Build 0)  -->
<svg version="1.1" id="Layer_1" xmlns="http://www.w3.org/2000/svg" xmlns:xlink="http://www.w3.org/1999/xlink" x="0px" y="0px"
	 viewBox="0 339 1278.8 602" enable-background="new 0 339 1278.8 602" xml:space="preserve">
<path fill="#999999" d="M1276.8,545c0,0,0-2,2-2v-8l-2-2c-2,0-2-2-4-2h-260l-104-56l-30-100c0-2-2-2-2-2s0-2-2-2c-2-2-4-2-6-2
	l-126-20h-4c-2,0-2,0-4,2h-2l-88,72l-60,4l-116-84c-4-4-8-4-10-4c-4,0-6,4-8,6l-66,126l-122-18h-4l-248,48c-4,0-8,4-10,8s0,8,2,12
	l58,74l-16,54v6c0,2,0,4,2,6l46,56l-32,102c-2,4,0,10,4,12c2,2,6,2,8,2s4,0,6-2l154-70l64-28l28,76l-18,110v8c0,2,2,2,4,4
	c2,0,4,2,6,2h4l198-70l108,76c2,2,4,2,6,2h220c4,0,6-2,8-4l252-198h2L1276.8,545L1276.8,545z M226.8,733l-46-42l-20-18l34,6l114,20
	l-14,6L226.8,733L226.8,733z M732.8,445l4,62l-10-10l-62-62l62-50C726.8,385,732.8,445,732.8,445z M1010.8,633l10-80l68,20l-56,44
	L1010.8,633z M1094.8,709l-80-48l84-64L1094.8,709z M256.8,489l70,140l-180,12L256.8,489z M900.8,509l72,138l-118-16l16-44
	L900.8,509z M760.8,623l2-54l58,66l-64,44L760.8,623L760.8,623z M738.8,565l-6,116l-12-10l-58-44l72-60L738.8,565L738.8,565z
	 M392.8,703l-30-18l-2-14L392.8,703z M374.8,649l230-8l-138,104L374.8,649z M642.8,745l10-96l34,26l34,26l-48,26L642.8,745
	L642.8,745z M498.8,751l42-32l86-64l-12,100l-86-4L498.8,751L498.8,751z M758.8,707l18-12l50-34l4,66l8,142l-56-112L758.8,707
	L758.8,707z M878.8,501l-44,114l-62-72l12-6L878.8,501L878.8,501z M734.8,537l-78,64v-28l4-112l38,40L734.8,537L734.8,537z
	 M626.8,617l-178,6l-68,2l192-166l50,148L626.8,617L626.8,617z M396.8,579l4-84l132-32L396.8,579z M224.8,659l112-8l2,26l-28-4
	L224.8,659L224.8,659z M592.8,779l-70,52l-36-56L592.8,779L592.8,779z M650.8,769l82-44l6-4l84,168L650.8,769L650.8,769z M862.8,883
	l-10-198l-2-32l118,16h6l-70,130L862.8,883L862.8,883z M634.8,483l-2,76l-36-110l40-2L634.8,483L634.8,483z M344.8,807l14-96l86,52
	l-112,118L344.8,807L344.8,807z M462.8,781l36,56l2,4l-142,50L462.8,781z M644.8,915l-4-124l174,124H644.8z M1114.8,557l-18-6l-6-2
	h58L1114.8,557L1114.8,557z M986.8,621l-58-112l68,36L986.8,621z M786.8,511l2-4l74-102l22,66L786.8,511L786.8,511z M762.8,503
	l-8-130l92,14L762.8,503L762.8,503z M464.8,369l86,64l-138,34L464.8,369L464.8,369z M374.8,495l-32,110l-64-124L374.8,495z
	 M230.8,483l-110,150l-90-112L230.8,483L230.8,483z M96.8,641l-26-2l8-22L96.8,641z M106.8,665l-8,20l-18-22L106.8,665z M128.8,675
	l74,68l-112,52L128.8,675z M334.8,713l-6,46l-14-36L334.8,713z M540.8,847l76-56l4,112L540.8,847L540.8,847z M890.8,883l108-204
	l40,24l46,28L890.8,883L890.8,883z M1126.8,579l30-6l78-16l-114,138L1126.8,579L1126.8,579z"/>
</svg>
