<?xml version="1.0" encoding="utf-8"?>
<!-- Generator: Adobe Illustrator 18.1.1, SVG Export Plug-In . SVG Version: 6.00 Build 0)  -->
<svg version="1.1" id="Layer_1" xmlns="http://www.w3.org/2000/svg" xmlns:xlink="http://www.w3.org/1999/xlink" x="0px" y="0px"
	 viewBox="0 0 960 560" enable-background="new 0 0 960 560" xml:space="preserve">
<g enable-background="new    ">
	<path fill="#FED136" d="M428.3,285.6c0,9.7-1.7,18.7-5,27c-3.4,8.2-8.1,15.4-14.2,21.4c-6.1,6-13.5,10.7-22.1,14.1
		c-8.6,3.4-18.1,5-28.6,5H306V218.2h52.4c10.5,0,20,1.7,28.6,5.1c8.6,3.4,16,8.1,22.1,14.1c6.1,6,10.8,13.1,14.2,21.3
		C426.6,266.9,428.3,275.9,428.3,285.6z M396.3,285.6c0-6.7-0.9-12.7-2.6-18c-1.7-5.4-4.2-9.9-7.4-13.6c-3.2-3.7-7.2-6.6-11.9-8.6
		c-4.7-2-10-3-16-3h-20.9V329h20.9c6,0,11.3-1,16-3c4.7-2,8.6-4.9,11.9-8.6c3.2-3.7,5.7-8.3,7.4-13.6
		C395.4,298.3,396.3,292.3,396.3,285.6z"/>
	<path fill="#FED136" d="M530,218.2v24h-55.3v31.5h42.4v23.1h-42.4V329H530v24h-86.8V218.2H530z"/>
	<path fill="#FED136" d="M579.1,328H629v25h-81.2V218.2h31.3V328z"/>
	<path fill="#FED136" d="M725,218.2V243h-37.9v110h-31.3V243h-37.9v-24.8H725z"/>
	<path fill="#FED136" d="M848.6,353h-24.2c-2.7,0-4.9-0.6-6.7-1.9c-1.8-1.3-3-2.9-3.7-4.9l-8-23.5h-51.2l-8,23.5
		c-0.6,1.7-1.8,3.3-3.6,4.7c-1.8,1.4-4,2.1-6.6,2.1h-24.4l52.2-134.8h32L848.6,353z M762,301.5h36.8l-12.4-36.9
		c-0.8-2.3-1.7-5.1-2.8-8.3c-1.1-3.2-2.1-6.6-3.2-10.3c-1,3.8-2,7.2-3.1,10.5c-1,3.2-2,6-3,8.3L762,301.5z"/>
</g>
<g>
	<path fill="#FED136" d="M193.5,353c-37.2,0-67.5-30.3-67.5-67.5s30.3-67.5,67.5-67.5s67.5,30.3,67.5,67.5S230.7,353,193.5,353z
		 M193.5,249.5c-19.9,0-36,16.2-36,36s16.2,36,36,36c19.9,0,36-16.2,36-36S213.4,249.5,193.5,249.5z"/>
</g>
<rect x="229.4" y="218" fill="#FED136" width="31.6" height="70.7"/>
<rect x="126" y="288.7" fill="#FED136" width="31.5" height="64.3"/>
</svg>
