<?xml version="1.0" encoding="utf-8"?>
<!-- Generator: Adobe Illustrator 18.1.1, SVG Export Plug-In . SVG Version: 6.00 Build 0)  -->
<svg version="1.1" id="Layer_1" xmlns="http://www.w3.org/2000/svg" xmlns:xlink="http://www.w3.org/1999/xlink" x="0px" y="0px"
	 viewBox="168 557.3 963.5 180.2" enable-background="new 168 557.3 963.5 180.2" xml:space="preserve">
<g enable-background="new    ">
	<path fill="#FED136" d="M571.1,647.5c0,12.9-2.3,24.9-6.7,36c-4.5,10.9-10.8,20.5-18.9,28.5c-8.1,8-18,14.3-29.5,18.8
		s-24.1,6.7-38.1,6.7H408V557.6h69.9c14,0,26.7,2.3,38.1,6.8c11.5,4.5,21.3,10.8,29.5,18.8c8.1,8,14.4,17.5,18.9,28.4
		C568.8,622.5,571.1,634.5,571.1,647.5z M528.4,647.5c0-8.9-1.2-16.9-3.5-24c-2.3-7.2-5.6-13.2-9.9-18.1c-4.3-4.9-9.6-8.8-15.9-11.5
		s-13.3-4-21.3-4H450v115.5h27.9c8,0,15.1-1.3,21.3-4c6.3-2.7,11.5-6.5,15.9-11.5c4.3-4.9,7.6-11.1,9.9-18.1
		C527.2,664.4,528.4,656.4,528.4,647.5z"/>
	<path fill="#FED136" d="M706.7,557.6v32H633v42h56.5v30.8H633v42.9h73.7v32H590.9V557.6H706.7z"/>
	<path fill="#FED136" d="M772.1,704h66.5v33.3H730.4V557.6h41.7L772.1,704L772.1,704z"/>
	<path fill="#FED136" d="M966.7,557.6v33.1h-50.5v146.7h-41.7V590.7H824v-33.1L966.7,557.6L966.7,557.6z"/>
	<path fill="#FED136" d="M1131.5,737.3h-32.3c-3.6,0-6.5-0.8-8.9-2.5s-4-3.9-4.9-6.5l-10.7-31.3h-68.3l-10.7,31.3
		c-0.8,2.3-2.4,4.4-4.8,6.3c-2.4,1.9-5.3,2.8-8.8,2.8h-32.5l69.6-179.7h42.7L1131.5,737.3z M1016,668.7h49.1l-16.5-49.2
		c-1.1-3.1-2.3-6.8-3.7-11.1c-1.5-4.3-2.8-8.8-4.3-13.7c-1.3,5.1-2.7,9.6-4.1,14c-1.3,4.3-2.7,8-4,11.1L1016,668.7z"/>
</g>
<g>
	<path fill="#FED136" d="M258,737.3c-49.6,0-90-40.4-90-90s40.4-90,90-90s90,40.4,90,90C348,696.9,307.6,737.3,258,737.3z
		 M258,599.3c-26.5,0-48,21.6-48,48s21.6,48,48,48c26.5,0,48-21.6,48-48C306,620.9,284.5,599.3,258,599.3z"/>
</g>
<rect x="305.9" y="557.3" fill="#FED136" width="42.1" height="94.3"/>
<rect x="168" y="651.6" fill="#FED136" width="42" height="85.7"/>
</svg>
